<svg width="148" height="23" viewBox="0 0 148 23" fill="none" xmlns="http://www.w3.org/2000/svg">
<path d="M31.7272 16.2409V7.20216H34.1018L34.3372 8.64119H34.3923C34.658 8.09535 35.0357 7.68121 35.5255 7.40256C36.0152 7.12392 36.5923 6.98268 37.2566 6.98268C37.7027 6.98268 38.1146 7.03994 38.4886 7.15636C38.8625 7.27278 39.1947 7.45409 39.4851 7.7022C39.7756 7.95221 40.0166 8.28239 40.2103 8.69463H40.2653C40.6032 8.16024 41.0303 7.74037 41.5428 7.43691C42.0553 7.13346 42.6874 6.98077 43.4372 6.98077C44.187 6.98077 44.8001 7.14872 45.3126 7.48272C45.827 7.81671 46.2181 8.29575 46.4914 8.92174C46.7629 9.54774 46.8995 10.315 46.8995 11.2272V16.239H44.1984V11.483C44.1984 10.7787 44.0655 10.2348 43.7998 9.85119C43.534 9.46949 43.1107 9.27673 42.5318 9.27673C42.1445 9.27673 41.8161 9.36452 41.5447 9.5401C41.2733 9.71569 41.0588 9.96762 40.9012 10.2959C40.7437 10.6241 40.6658 11.0249 40.6658 11.4983V16.2371H37.9647V11.4811C37.9647 10.7768 37.8318 10.2329 37.5661 9.84928C37.3003 9.46758 36.8713 9.27482 36.2791 9.27482C35.9279 9.27482 35.6147 9.36643 35.3376 9.54774C35.0604 9.73096 34.8421 9.99433 34.6846 10.3398C34.527 10.6852 34.4492 11.1032 34.4492 11.588V16.2352H31.731L31.7272 16.2409Z" fill="black"/>
<path d="M51.0471 16.4604C50.322 16.4604 49.7241 16.3383 49.2533 16.0959C48.7826 15.8535 48.4371 15.529 48.2207 15.1206C48.0024 14.7141 47.8942 14.2618 47.8942 13.7637C47.8942 13.2178 48.0309 12.735 48.3023 12.3151C48.5738 11.8952 49.0009 11.565 49.5798 11.3227C50.1588 11.0803 50.9029 10.9581 51.8083 10.9581H54.0197C54.0197 10.5459 53.9647 10.2081 53.8565 9.94661C53.7483 9.68515 53.5756 9.49048 53.3402 9.36261C53.1048 9.23474 52.7935 9.17175 52.4063 9.17175C51.983 9.17175 51.6185 9.26336 51.3091 9.44467C51.0016 9.62789 50.8099 9.91226 50.7377 10.3016H48.1277C48.1884 9.63362 48.4048 9.05342 48.7807 8.56102C49.1546 8.06863 49.6539 7.6831 50.2765 7.40446C50.8991 7.12582 51.6147 6.98459 52.4233 6.98459C53.2927 6.98459 54.052 7.12391 54.6974 7.40446C55.3428 7.6831 55.8458 8.09916 56.2008 8.65264C56.5576 9.20611 56.7361 9.88363 56.7361 10.6852V16.2428H54.4886L54.1811 14.8763H54.126C53.9571 15.1435 53.7635 15.3745 53.5471 15.5691C53.3288 15.7638 53.0915 15.9279 52.8315 16.0615C52.5714 16.1951 52.2943 16.2963 51.9981 16.3631C51.702 16.4299 51.385 16.4623 51.0471 16.4623V16.4604ZM51.9526 14.382C52.243 14.382 52.4993 14.3343 52.7233 14.237C52.9473 14.1396 53.1371 14.0099 53.2946 13.8457C53.4522 13.6816 53.5794 13.4907 53.6743 13.2713C53.7711 13.0518 53.8432 12.8151 53.8926 12.5613H52.1348C51.8197 12.5613 51.5635 12.6014 51.3641 12.6796C51.1648 12.7579 51.0168 12.8686 50.92 13.0079C50.8232 13.1472 50.7757 13.3152 50.7757 13.5079C50.7757 13.7007 50.8232 13.8629 50.92 13.9908C51.0168 14.1186 51.1553 14.216 51.3376 14.2828C51.5179 14.3496 51.7248 14.382 51.9545 14.382H51.9526Z" fill="black"/>
<path d="M58.006 19.9759V7.20215H60.3085L60.4888 8.66026H60.5439C60.7622 8.32054 61.0184 8.02472 61.3146 7.77661C61.6107 7.5285 61.958 7.33384 62.3567 7.1926C62.7553 7.05328 63.2014 6.98267 63.6987 6.98267C64.532 6.98267 65.2685 7.18688 65.9101 7.5934C66.5498 7.99991 67.049 8.55911 67.4059 9.26908C67.7628 9.97905 67.9412 10.7978 67.9412 11.7196C67.9412 12.6414 67.7628 13.4602 67.4059 14.1702C67.049 14.8801 66.5517 15.4393 65.9101 15.8458C65.2685 16.2524 64.5206 16.4566 63.6626 16.4566C63.0097 16.4566 62.4326 16.3344 61.9315 16.092C61.4303 15.8497 61.0279 15.5386 60.7261 15.1626V19.974H58.0079L58.006 19.9759ZM62.9166 14.2179C63.3627 14.2179 63.7594 14.111 64.103 13.8992C64.4466 13.6873 64.7123 13.3953 64.9003 13.0251C65.0882 12.6548 65.1812 12.2273 65.1812 11.7406C65.1812 11.2539 65.0882 10.8264 64.9003 10.4562C64.7123 10.0859 64.4466 9.7901 64.103 9.57253C63.7594 9.35305 63.3627 9.24427 62.9166 9.24427C62.4706 9.24427 62.0738 9.35305 61.7303 9.57253C61.3867 9.79201 61.1171 10.0859 60.9235 10.4562C60.7299 10.8264 60.6331 11.2558 60.6331 11.7406C60.6331 12.2254 60.7299 12.6395 60.9235 13.0155C61.1171 13.3915 61.3848 13.6873 61.7303 13.8992C62.0738 14.1129 62.4706 14.2179 62.9166 14.2179Z" fill="black"/>
<path d="M71.9426 16.4604C71.2175 16.4604 70.6195 16.3383 70.1488 16.0959C69.678 15.8535 69.3326 15.529 69.1162 15.1206C68.8979 14.7141 68.7897 14.2618 68.7897 13.7637C68.7897 13.2178 68.9263 12.735 69.1978 12.3151C69.4692 11.8952 69.8963 11.565 70.4753 11.3227C71.0542 11.0803 71.7983 10.9581 72.7038 10.9581H74.9152C74.9152 10.5459 74.8601 10.2081 74.7519 9.94661C74.6437 9.68515 74.471 9.49048 74.2356 9.36261C74.0002 9.23474 73.6889 9.17175 73.3017 9.17175C72.8784 9.17175 72.514 9.26336 72.2045 9.44467C71.897 9.62789 71.7053 9.91226 71.6332 10.3016H69.0232C69.0839 9.63362 69.3003 9.05342 69.6761 8.56102C70.0501 8.06863 70.5493 7.6831 71.1719 7.40446C71.7945 7.12582 72.5102 6.98459 73.3188 6.98459C74.1882 6.98459 74.9475 7.12391 75.5928 7.40446C76.2382 7.6831 76.7413 8.09916 77.0962 8.65264C77.4531 9.20611 77.6315 9.88363 77.6315 10.6852V16.2428H75.384L75.0765 14.8763H75.0215C74.8525 15.1435 74.6589 15.3745 74.4425 15.5691C74.2242 15.7638 73.987 15.9279 73.7269 16.0615C73.4669 16.1951 73.1897 16.2963 72.8936 16.3631C72.5975 16.4299 72.2805 16.4623 71.9426 16.4623V16.4604ZM72.8499 14.382C73.1404 14.382 73.3966 14.3343 73.6206 14.237C73.8446 14.1396 74.0344 14.0099 74.192 13.8457C74.3495 13.6816 74.4767 13.4907 74.5716 13.2713C74.6684 13.0518 74.7406 12.8151 74.7899 12.5613H73.0322C72.7171 12.5613 72.4608 12.6014 72.2615 12.6796C72.0622 12.7579 71.9141 12.8686 71.8173 13.0079C71.7205 13.1472 71.673 13.3152 71.673 13.5079C71.673 13.7007 71.7205 13.8629 71.8173 13.9908C71.9141 14.1186 72.0527 14.216 72.2349 14.2828C72.4153 14.3496 72.6222 14.382 72.8518 14.382H72.8499Z" fill="black"/>
<path d="M87.2422 16.4604C86.3728 16.4604 85.6135 16.2486 84.9681 15.823C84.3208 15.3974 83.8197 14.8267 83.4647 14.111C83.1079 13.3953 82.9294 12.5918 82.9294 11.7063C82.9294 10.8207 83.1136 9.98478 83.4818 9.2729C83.8501 8.56293 84.3702 8.00374 85.0402 7.59722C85.7103 7.19071 86.5 6.98649 87.4054 6.98649C88.1913 6.98649 88.8727 7.14681 89.4536 7.46935C90.0325 7.79189 90.4748 8.23849 90.7766 8.80914V3.39656H92.0446V16.2428H90.8848L90.7406 14.4393H90.6855C90.5166 14.8038 90.2717 15.1378 89.9509 15.4413C89.6301 15.7447 89.2448 15.9909 88.7911 16.1799C88.3374 16.3688 87.8211 16.4623 87.2422 16.4623V16.4604ZM87.4054 15.3477C88.0451 15.3477 88.6108 15.197 89.1005 14.8916C89.5902 14.5881 89.9794 14.1625 90.2698 13.6167C90.5602 13.0709 90.7045 12.4315 90.7045 11.7025C90.7045 10.9734 90.5659 10.3169 90.2869 9.77103C90.0097 9.22519 89.6282 8.80914 89.1461 8.52286C88.662 8.23658 88.1002 8.09535 87.4605 8.09535C86.8208 8.09535 86.2741 8.23849 85.7843 8.52286C85.2946 8.80914 84.9112 9.22519 84.634 9.77103C84.3569 10.3169 84.2164 10.962 84.2164 11.7025C84.2164 12.443 84.3531 13.069 84.6245 13.6167C84.896 14.1625 85.2699 14.5881 85.7483 14.8916C86.2247 15.1951 86.779 15.3477 87.4073 15.3477H87.4054Z" fill="black"/>
<path d="M97.6082 16.4604C96.7749 16.4604 96.0232 16.2657 95.3513 15.8783C94.6812 15.489 94.1497 14.9393 93.7568 14.2293C93.3638 13.5194 93.1683 12.6834 93.1683 11.7234C93.1683 10.7635 93.3676 9.91417 93.7663 9.20802C94.1649 8.50377 94.7021 7.95794 95.3797 7.5686C96.0555 7.17926 96.8053 6.98459 97.6272 6.98459C98.4491 6.98459 99.2464 7.17926 99.9108 7.5686C100.575 7.95794 101.105 8.50377 101.496 9.20802C101.889 9.91226 102.084 10.7577 102.084 11.7406C102.084 12.7235 101.885 13.5175 101.486 14.2274C101.088 14.9374 100.552 15.4871 99.8823 15.8764C99.2122 16.2657 98.4529 16.4585 97.6082 16.4585V16.4604ZM97.6082 15.3668C98.1644 15.3668 98.6807 15.2294 99.1572 14.9565C99.6336 14.6836 100.025 14.2771 100.326 13.735C100.628 13.1949 100.78 12.5231 100.78 11.7215C100.78 10.92 100.632 10.2329 100.336 9.69851C100.04 9.16412 99.6526 8.75951 99.1762 8.4866C98.6978 8.21368 98.1891 8.07626 97.6443 8.07626C97.0995 8.07626 96.5718 8.21368 96.0954 8.4866C95.617 8.75951 95.2279 9.16412 94.9261 9.69851C94.6243 10.2329 94.4724 10.9066 94.4724 11.7215C94.4724 12.5365 94.6205 13.1949 94.9166 13.735C95.2127 14.2751 95.5961 14.6836 96.0669 14.9565C96.5376 15.2294 97.0521 15.3668 97.6082 15.3668Z" fill="black"/>
<path d="M110.15 16.4604C109.449 16.4604 108.823 16.3383 108.274 16.0959C107.724 15.8535 107.278 15.5061 106.932 15.0576C106.589 14.6091 106.372 14.0671 106.289 13.4354H107.612C107.684 13.7751 107.826 14.0881 108.037 14.3744C108.248 14.6607 108.536 14.8916 108.899 15.0672C109.261 15.2428 109.69 15.3306 110.186 15.3306C110.645 15.3306 111.019 15.2638 111.309 15.1302C111.6 14.9966 111.816 14.8153 111.962 14.5843C112.107 14.3534 112.181 14.0996 112.181 13.819C112.181 13.4297 112.088 13.13 111.9 12.9163C111.712 12.7044 111.444 12.5422 111.093 12.4334C110.742 12.3246 110.32 12.2216 109.825 12.1242C109.462 12.0517 109.1 11.9563 108.737 11.8418C108.375 11.7273 108.043 11.5746 107.741 11.3856C107.439 11.1967 107.198 10.9581 107.016 10.6661C106.833 10.3741 106.744 10.0287 106.744 9.62789C106.744 9.10496 106.871 8.64691 107.124 8.25185C107.378 7.85678 107.743 7.5476 108.221 7.3224C108.698 7.09719 109.257 6.98459 109.897 6.98459C110.816 6.98459 111.573 7.21934 112.171 7.68692C112.769 8.15451 113.117 8.83776 113.213 9.73668H111.926C111.879 9.23855 111.672 8.84349 111.309 8.55148C110.947 8.25948 110.463 8.11443 109.859 8.11443C109.256 8.11443 108.832 8.23849 108.517 8.48851C108.202 8.73852 108.046 9.07442 108.046 9.50002C108.046 9.75576 108.134 9.97334 108.308 10.1566C108.483 10.3398 108.737 10.4963 109.07 10.6299C109.402 10.7635 109.791 10.8799 110.239 10.9753C110.782 11.0841 111.3 11.2272 111.788 11.4028C112.278 11.5784 112.682 11.8399 113.003 12.1872C113.323 12.5346 113.483 13.0346 113.483 13.6911C113.494 14.2255 113.365 14.7027 113.094 15.1225C112.822 15.5424 112.435 15.8707 111.934 16.1073C111.433 16.344 110.837 16.4623 110.148 16.4623L110.15 16.4604Z" fill="black"/>
<path d="M117.598 16.4604C116.848 16.4604 116.226 16.3306 115.732 16.0691C115.237 15.8077 114.869 15.4641 114.628 15.0405C114.386 14.6149 114.265 14.153 114.265 13.6549C114.265 13.0231 114.428 12.4926 114.755 12.0612C115.081 11.6299 115.541 11.3055 116.133 11.086C116.725 10.8665 117.408 10.7577 118.181 10.7577H120.647C120.647 10.1871 120.554 9.70041 120.366 9.29962C120.178 8.89883 119.91 8.59537 119.559 8.38925C119.208 8.18313 118.773 8.08007 118.255 8.08007C117.627 8.08007 117.084 8.24038 116.624 8.56292C116.165 8.88546 115.882 9.35496 115.772 9.97523H114.43C114.502 9.3187 114.73 8.76905 115.11 8.32627C115.491 7.88349 115.958 7.5495 116.514 7.32429C117.071 7.09909 117.65 6.98648 118.255 6.98648C119.088 6.98648 119.774 7.14489 120.313 7.4598C120.85 7.77661 121.252 8.20985 121.518 8.76332C121.784 9.31679 121.917 9.95614 121.917 10.6852V16.2428H120.757L120.63 14.4927H120.575C120.453 14.7484 120.303 14.9966 120.121 15.2408C119.939 15.4851 119.732 15.6932 119.496 15.8687C119.261 16.0443 118.986 16.1875 118.673 16.2963C118.358 16.405 118.003 16.4604 117.604 16.4604H117.598ZM117.725 15.3305C118.16 15.3305 118.557 15.2466 118.912 15.0748C119.269 14.9049 119.576 14.6683 119.836 14.3648C120.096 14.0614 120.296 13.6988 120.434 13.2808C120.573 12.8609 120.643 12.4086 120.643 11.9238V11.8513H118.268C117.615 11.8513 117.093 11.9315 116.7 12.088C116.307 12.2464 116.023 12.4563 115.848 12.7159C115.673 12.9773 115.586 13.2789 115.586 13.6186C115.586 13.9583 115.668 14.2561 115.831 14.5118C115.994 14.7675 116.235 14.9679 116.556 15.113C116.877 15.258 117.266 15.3325 117.725 15.3325V15.3305Z" fill="black"/>
<path d="M128.019 16.4604C127.452 16.4604 126.941 16.3688 126.488 16.1875C126.034 16.0043 125.649 15.7619 125.328 15.4584C125.007 15.155 124.756 14.8153 124.576 14.4374H124.521L124.377 16.2409H123.217V3.39465H124.485V8.78814C124.8 8.25375 125.242 7.81861 125.817 7.48462C126.391 7.15063 127.078 6.98267 127.875 6.98267C128.769 6.98267 129.555 7.18689 130.231 7.5934C130.907 7.99992 131.427 8.55912 131.789 9.26909C132.152 9.97906 132.332 10.7902 132.332 11.7025C132.332 12.6147 132.157 13.4087 131.806 14.1263C131.455 14.8439 130.954 15.4107 130.303 15.8306C129.652 16.2505 128.889 16.4585 128.019 16.4585V16.4604ZM127.856 15.3477C128.509 15.3477 129.071 15.197 129.542 14.8916C130.012 14.5881 130.381 14.1625 130.646 13.6167C130.912 13.0709 131.045 12.4315 131.045 11.7025C131.045 10.9734 130.907 10.3169 130.628 9.77103C130.35 9.22519 129.969 8.80913 129.485 8.52285C129.001 8.23658 128.439 8.09535 127.799 8.09535C127.159 8.09535 126.613 8.23848 126.123 8.52285C125.633 8.80913 125.25 9.22519 124.973 9.77103C124.696 10.3169 124.555 10.9619 124.555 11.7025C124.555 12.443 124.698 13.069 124.98 13.6167C125.265 14.1625 125.656 14.5881 126.159 14.8916C126.66 15.1951 127.226 15.3477 127.854 15.3477H127.856Z" fill="black"/>
<path d="M137.444 16.4604C136.597 16.4604 135.85 16.2619 135.197 15.8688C134.544 15.4737 134.031 14.9221 133.655 14.2103C133.281 13.5003 133.093 12.6644 133.093 11.7044C133.093 10.7444 133.277 9.91226 133.646 9.20802C134.014 8.50377 134.53 7.95794 135.195 7.5686C135.859 7.17926 136.62 6.98459 137.478 6.98459C138.336 6.98459 139.092 7.18308 139.707 7.57623C140.324 7.9713 140.794 8.48468 141.121 9.11641C141.447 9.74813 141.611 10.4295 141.611 11.1566V11.5383C141.611 11.6719 141.605 11.8246 141.592 11.9945H134.071V10.9009H140.379C140.343 10.0134 140.046 9.32253 139.49 8.8244C138.934 8.32628 138.245 8.07626 137.425 8.07626C136.882 8.07626 136.373 8.19841 135.903 8.44079C135.432 8.68318 135.05 9.04007 134.762 9.50575C134.471 9.97333 134.327 10.5535 134.327 11.2463V11.7387C134.327 12.5537 134.479 13.2293 134.781 13.7713C135.083 14.3114 135.472 14.7122 135.95 14.9737C136.427 15.2351 136.926 15.3649 137.446 15.3649C138.122 15.3649 138.691 15.2065 139.15 14.8916C139.61 14.5767 139.936 14.1377 140.13 13.5785H141.362C141.218 14.1263 140.969 14.6168 140.618 15.0538C140.267 15.4909 139.826 15.8344 139.295 16.0825C138.763 16.3306 138.146 16.4566 137.446 16.4566L137.444 16.4604Z" fill="black"/>
<path d="M142.573 16.2409V7.20216H143.733L143.824 8.96945H143.879C144.059 8.54385 144.308 8.18505 144.621 7.89495C144.934 7.60295 145.31 7.37774 145.745 7.22124C146.18 7.06284 146.675 6.98459 147.231 6.98459V8.31483H146.888C146.476 8.31483 146.087 8.36636 145.718 8.46942C145.35 8.57248 145.027 8.74997 144.748 8.99808C144.469 9.24809 144.249 9.58209 144.086 10.0001C143.923 10.4199 143.841 10.939 143.841 11.5574V16.2409H142.573Z" fill="black"/>
<path d="M12.0921 22.5276C11.8985 22.5276 11.703 22.478 11.5303 22.3787L5.91158 19.14L2.12277 21.5351C1.77539 21.7546 1.33501 21.768 0.974351 21.5676C0.613692 21.3672 0.391602 20.9874 0.391602 20.5733V4.7077C0.391602 4.31455 0.589015 3.95574 0.919303 3.74581L5.30985 0.968901C5.66482 0.745604 6.1109 0.736066 6.47345 0.944095L12.0883 4.17904C12.0883 4.17904 12.0959 4.17904 12.0978 4.17904L17.7127 0.965086C18.0753 0.757057 18.5195 0.766601 18.8744 0.989898L23.265 3.7668C23.5953 3.97673 23.7927 4.33554 23.7927 4.72869V20.5962C23.7927 21.0103 23.5687 21.3901 23.2099 21.5905C22.8493 21.7909 22.4108 21.7775 22.0615 21.5581L18.2727 19.1609L12.654 22.3768C12.4813 22.4761 12.2877 22.5257 12.094 22.5257L12.0921 22.5276ZM5.88501 17.8269L12.0883 21.4016C12.0883 21.4016 12.0959 21.4016 12.0978 21.4016L18.2993 17.8517L22.6576 20.6076C22.6576 20.6076 22.6708 20.6076 22.6727 20.6038V4.73251C22.6727 4.73251 22.6727 4.72679 22.6689 4.72488L18.2784 1.94797C18.2784 1.94797 18.2708 1.94607 18.2689 1.94797L12.654 5.16193C12.3085 5.36041 11.8776 5.3585 11.5322 5.16193L5.91728 1.92698C5.91728 1.92698 5.90969 1.92698 5.90779 1.92698L1.51724 4.70388C1.51724 4.70388 1.51344 4.70961 1.51344 4.71152V20.5771C1.51344 20.5771 1.52103 20.5885 1.52483 20.5885L5.88691 17.8307L5.88501 17.8269Z" fill="black"/>
<path d="M18.2955 9.07824L11.4752 14.8477C11.3689 14.9374 11.2152 14.9469 11.0994 14.8725L6.88348 12.1414C6.74681 12.0536 6.70885 11.8704 6.79616 11.7349L8.27297 9.4294C8.36029 9.29199 8.54251 9.25382 8.67729 9.34161L12.7964 12.0116L17.5552 8.18123C17.6463 8.1087 17.7792 8.12207 17.8532 8.21367L18.3164 8.79577C18.3847 8.88166 18.3733 9.0038 18.2974 9.07824H18.2955Z" fill="#C8F31D"/>
</svg>
