<svg width="148" height="23" viewBox="0 0 148 23" fill="none" xmlns="http://www.w3.org/2000/svg">
<path d="M31.7272 15.9938V6.95508H34.1018L34.3372 8.39411H34.3923C34.658 7.84827 35.0357 7.43412 35.5255 7.15548C36.0152 6.87683 36.5923 6.7356 37.2566 6.7356C37.7027 6.7356 38.1146 6.79286 38.4886 6.90928C38.8625 7.02569 39.1947 7.207 39.4851 7.45511C39.7756 7.70513 40.0166 8.0353 40.2103 8.44754H40.2653C40.6032 7.91316 41.0303 7.49328 41.5428 7.18983C42.0553 6.88637 42.6874 6.73369 43.4372 6.73369C44.187 6.73369 44.8001 6.90164 45.3126 7.23563C45.827 7.56962 46.2181 8.04866 46.4914 8.67466C46.7629 9.30065 46.8995 10.0679 46.8995 10.9802V15.9919H44.1984V11.2359C44.1984 10.5317 44.0655 9.98772 43.7998 9.60411C43.534 9.2224 43.1107 9.02964 42.5318 9.02964C42.1445 9.02964 41.8161 9.11743 41.5447 9.29302C41.2733 9.4686 41.0588 9.72053 40.9012 10.0488C40.7437 10.3771 40.6658 10.7779 40.6658 11.2512V15.99H37.9647V11.234C37.9647 10.5297 37.8318 9.98581 37.5661 9.6022C37.3003 9.22049 36.8713 9.02774 36.2791 9.02774C35.9279 9.02774 35.6147 9.11934 35.3376 9.30065C35.0604 9.48387 34.8421 9.74725 34.6846 10.0927C34.527 10.4381 34.4492 10.8561 34.4492 11.3409V15.9881H31.731L31.7272 15.9938Z" fill="white"/>
<path d="M51.0471 16.2133C50.322 16.2133 49.7241 16.0912 49.2533 15.8488C48.7826 15.6064 48.4371 15.282 48.2207 14.8735C48.0024 14.467 47.8942 14.0147 47.8942 13.5166C47.8942 12.9707 48.0309 12.4879 48.3023 12.068C48.5738 11.6481 49.0009 11.318 49.5798 11.0756C50.1588 10.8332 50.9029 10.711 51.8083 10.711H54.0197C54.0197 10.2988 53.9647 9.961 53.8565 9.69953C53.7483 9.43806 53.5756 9.24339 53.3402 9.11552C53.1048 8.98765 52.7935 8.92467 52.4063 8.92467C51.983 8.92467 51.6185 9.01628 51.3091 9.19759C51.0016 9.3808 50.8099 9.66518 50.7377 10.0545H48.1277C48.1884 9.38653 48.4048 8.80634 48.7807 8.31394C49.1546 7.82154 49.6539 7.43602 50.2765 7.15737C50.8991 6.87873 51.6147 6.7375 52.4233 6.7375C53.2927 6.7375 54.052 6.87682 54.6974 7.15737C55.3428 7.43602 55.8458 7.85208 56.2008 8.40555C56.5576 8.95902 56.7361 9.63655 56.7361 10.4381V15.9957H54.4886L54.1811 14.6292H54.126C53.9571 14.8964 53.7635 15.1274 53.5471 15.322C53.3288 15.5167 53.0915 15.6808 52.8315 15.8144C52.5714 15.948 52.2943 16.0492 51.9981 16.116C51.702 16.1828 51.385 16.2152 51.0471 16.2152V16.2133ZM51.9526 14.1349C52.243 14.1349 52.4993 14.0872 52.7233 13.9899C52.9473 13.8926 53.1371 13.7628 53.2946 13.5986C53.4522 13.4345 53.5794 13.2437 53.6743 13.0242C53.7711 12.8047 53.8432 12.568 53.8926 12.3142H52.1348C51.8197 12.3142 51.5635 12.3543 51.3641 12.4325C51.1648 12.5108 51.0168 12.6215 50.92 12.7608C50.8232 12.9001 50.7757 13.0681 50.7757 13.2608C50.7757 13.4536 50.8232 13.6158 50.92 13.7437C51.0168 13.8716 51.1553 13.9689 51.3376 14.0357C51.5179 14.1025 51.7248 14.1349 51.9545 14.1349H51.9526Z" fill="white"/>
<path d="M58.006 19.7288V6.95507H60.3085L60.4888 8.41319H60.5439C60.7622 8.07347 61.0184 7.77765 61.3146 7.52954C61.6107 7.28143 61.958 7.08677 62.3567 6.94553C62.7553 6.80621 63.2014 6.7356 63.6987 6.7356C64.532 6.7356 65.2685 6.93981 65.9101 7.34633C66.5498 7.75284 67.049 8.31204 67.4059 9.02201C67.7628 9.73198 67.9412 10.5507 67.9412 11.4726C67.9412 12.3944 67.7628 13.2131 67.4059 13.9231C67.049 14.6331 66.5517 15.1923 65.9101 15.5988C65.2685 16.0053 64.5206 16.2095 63.6626 16.2095C63.0097 16.2095 62.4326 16.0874 61.9315 15.845C61.4303 15.6026 61.0279 15.2915 60.7261 14.9155V19.7269H58.0079L58.006 19.7288ZM62.9166 13.9708C63.3627 13.9708 63.7594 13.8639 64.103 13.6521C64.4466 13.4402 64.7123 13.1482 64.9003 12.778C65.0882 12.4077 65.1812 11.9802 65.1812 11.4935C65.1812 11.0069 65.0882 10.5794 64.9003 10.2091C64.7123 9.83886 64.4466 9.54303 64.103 9.32546C63.7594 9.10598 63.3627 8.9972 62.9166 8.9972C62.4706 8.9972 62.0738 9.10598 61.7303 9.32546C61.3867 9.54494 61.1171 9.83886 60.9235 10.2091C60.7299 10.5794 60.6331 11.0088 60.6331 11.4935C60.6331 11.9783 60.7299 12.3925 60.9235 12.7684C61.1171 13.1444 61.3848 13.4402 61.7303 13.6521C62.0738 13.8658 62.4706 13.9708 62.9166 13.9708Z" fill="white"/>
<path d="M71.9426 16.2133C71.2175 16.2133 70.6195 16.0912 70.1488 15.8488C69.678 15.6064 69.3326 15.282 69.1162 14.8735C68.8979 14.467 68.7897 14.0147 68.7897 13.5166C68.7897 12.9707 68.9263 12.4879 69.1978 12.068C69.4692 11.6481 69.8963 11.318 70.4753 11.0756C71.0542 10.8332 71.7983 10.711 72.7038 10.711H74.9152C74.9152 10.2988 74.8601 9.961 74.7519 9.69953C74.6437 9.43806 74.471 9.24339 74.2356 9.11552C74.0002 8.98765 73.6889 8.92467 73.3017 8.92467C72.8784 8.92467 72.514 9.01628 72.2045 9.19759C71.897 9.3808 71.7053 9.66518 71.6332 10.0545H69.0232C69.0839 9.38653 69.3003 8.80634 69.6761 8.31394C70.0501 7.82154 70.5493 7.43602 71.1719 7.15737C71.7945 6.87873 72.5102 6.7375 73.3188 6.7375C74.1882 6.7375 74.9475 6.87682 75.5928 7.15737C76.2382 7.43602 76.7413 7.85208 77.0962 8.40555C77.4531 8.95902 77.6315 9.63655 77.6315 10.4381V15.9957H75.384L75.0765 14.6292H75.0215C74.8525 14.8964 74.6589 15.1274 74.4425 15.322C74.2242 15.5167 73.987 15.6808 73.7269 15.8144C73.4669 15.948 73.1897 16.0492 72.8936 16.116C72.5975 16.1828 72.2805 16.2152 71.9426 16.2152V16.2133ZM72.8499 14.1349C73.1404 14.1349 73.3966 14.0872 73.6206 13.9899C73.8446 13.8926 74.0344 13.7628 74.192 13.5986C74.3495 13.4345 74.4767 13.2437 74.5716 13.0242C74.6684 12.8047 74.7406 12.568 74.7899 12.3142H73.0322C72.7171 12.3142 72.4608 12.3543 72.2615 12.4325C72.0622 12.5108 71.9141 12.6215 71.8173 12.7608C71.7205 12.9001 71.673 13.0681 71.673 13.2608C71.673 13.4536 71.7205 13.6158 71.8173 13.7437C71.9141 13.8716 72.0527 13.9689 72.2349 14.0357C72.4153 14.1025 72.6222 14.1349 72.8518 14.1349H72.8499Z" fill="white"/>
<path d="M87.2422 16.2133C86.3728 16.2133 85.6135 16.0015 84.9681 15.5759C84.3208 15.1503 83.8197 14.5796 83.4647 13.8639C83.1079 13.1482 82.9294 12.3448 82.9294 11.4592C82.9294 10.5736 83.1136 9.73771 83.4818 9.02583C83.8501 8.31586 84.3702 7.75667 85.0402 7.35015C85.7103 6.94364 86.5 6.73942 87.4054 6.73942C88.1913 6.73942 88.8727 6.89974 89.4536 7.22228C90.0325 7.54482 90.4748 7.99142 90.7766 8.56207V3.14949H92.0446V15.9958H90.8848L90.7406 14.1922H90.6855C90.5166 14.5567 90.2717 14.8907 89.9509 15.1942C89.6301 15.4976 89.2448 15.7438 88.7911 15.9328C88.3374 16.1217 87.8211 16.2152 87.2422 16.2152V16.2133ZM87.4054 15.1007C88.0451 15.1007 88.6108 14.9499 89.1005 14.6445C89.5902 14.3411 89.9794 13.9155 90.2698 13.3696C90.5602 12.8238 90.7045 12.1844 90.7045 11.4554C90.7045 10.7263 90.5659 10.0698 90.2869 9.52396C90.0097 8.97812 89.6282 8.56207 89.1461 8.27579C88.662 7.98951 88.1002 7.84828 87.4605 7.84828C86.8208 7.84828 86.2741 7.99142 85.7843 8.27579C85.2946 8.56207 84.9112 8.97812 84.634 9.52396C84.3569 10.0698 84.2164 10.7149 84.2164 11.4554C84.2164 12.1959 84.3531 12.8219 84.6245 13.3696C84.896 13.9155 85.2699 14.3411 85.7483 14.6445C86.2247 14.948 86.779 15.1007 87.4073 15.1007H87.4054Z" fill="white"/>
<path d="M97.6082 16.2133C96.7749 16.2133 96.0232 16.0187 95.3513 15.6312C94.6812 15.2419 94.1497 14.6922 93.7568 13.9823C93.3638 13.2723 93.1683 12.4364 93.1683 11.4764C93.1683 10.5164 93.3676 9.66709 93.7663 8.96093C94.1649 8.25669 94.7021 7.71085 95.3797 7.32151C96.0555 6.93217 96.8053 6.7375 97.6272 6.7375C98.4491 6.7375 99.2464 6.93217 99.9108 7.32151C100.575 7.71085 101.105 8.25669 101.496 8.96093C101.889 9.66518 102.084 10.5107 102.084 11.4935C102.084 12.4764 101.885 13.2704 101.486 13.9803C101.088 14.6903 100.552 15.24 99.8823 15.6293C99.2122 16.0187 98.4529 16.2114 97.6082 16.2114V16.2133ZM97.6082 15.1197C98.1644 15.1197 98.6807 14.9823 99.1572 14.7094C99.6336 14.4365 100.025 14.03 100.326 13.4879C100.628 12.9478 100.78 12.276 100.78 11.4745C100.78 10.6729 100.632 9.98581 100.336 9.45142C100.04 8.91704 99.6526 8.51243 99.1762 8.23951C98.6978 7.96659 98.1891 7.82918 97.6443 7.82918C97.0995 7.82918 96.5718 7.96659 96.0954 8.23951C95.617 8.51243 95.2279 8.91704 94.9261 9.45142C94.6243 9.98581 94.4724 10.6595 94.4724 11.4745C94.4724 12.2894 94.6205 12.9478 94.9166 13.4879C95.2127 14.0281 95.5961 14.4365 96.0669 14.7094C96.5376 14.9823 97.0521 15.1197 97.6082 15.1197Z" fill="white"/>
<path d="M110.15 16.2133C109.449 16.2133 108.823 16.0912 108.274 15.8488C107.724 15.6064 107.278 15.2591 106.932 14.8106C106.589 14.3621 106.372 13.82 106.289 13.1883H107.612C107.684 13.528 107.826 13.841 108.037 14.1273C108.248 14.4136 108.536 14.6445 108.899 14.8201C109.261 14.9957 109.69 15.0835 110.186 15.0835C110.645 15.0835 111.019 15.0167 111.309 14.8831C111.6 14.7495 111.816 14.5682 111.962 14.3372C112.107 14.1063 112.181 13.8525 112.181 13.5719C112.181 13.1826 112.088 12.8829 111.9 12.6692C111.712 12.4573 111.444 12.2951 111.093 12.1863C110.742 12.0775 110.32 11.9745 109.825 11.8772C109.462 11.8046 109.1 11.7092 108.737 11.5947C108.375 11.4802 108.043 11.3275 107.741 11.1386C107.439 10.9496 107.198 10.711 107.016 10.419C106.833 10.127 106.744 9.7816 106.744 9.38081C106.744 8.85787 106.871 8.39982 107.124 8.00476C107.378 7.6097 107.743 7.30052 108.221 7.07531C108.698 6.8501 109.257 6.7375 109.897 6.7375C110.816 6.7375 111.573 6.97225 112.171 7.43984C112.769 7.90743 113.117 8.59068 113.213 9.48959H111.926C111.879 8.99147 111.672 8.5964 111.309 8.3044C110.947 8.01239 110.463 7.86735 109.859 7.86735C109.256 7.86735 108.832 7.9914 108.517 8.24142C108.202 8.49144 108.046 8.82733 108.046 9.25294C108.046 9.50868 108.134 9.72625 108.308 9.90947C108.483 10.0927 108.737 10.2492 109.07 10.3828C109.402 10.5164 109.791 10.6328 110.239 10.7282C110.782 10.837 111.3 10.9801 111.788 11.1557C112.278 11.3313 112.682 11.5928 113.003 11.9401C113.323 12.2875 113.483 12.7875 113.483 13.4441C113.494 13.9784 113.365 14.4556 113.094 14.8754C112.822 15.2953 112.435 15.6236 111.934 15.8602C111.433 16.0969 110.837 16.2152 110.148 16.2152L110.15 16.2133Z" fill="white"/>
<path d="M117.598 16.2133C116.848 16.2133 116.226 16.0835 115.732 15.8221C115.237 15.5606 114.869 15.2171 114.628 14.7934C114.386 14.3678 114.265 13.9059 114.265 13.4078C114.265 12.7761 114.428 12.2455 114.755 11.8142C115.081 11.3829 115.541 11.0584 116.133 10.8389C116.725 10.6194 117.408 10.5107 118.181 10.5107H120.647C120.647 9.94001 120.554 9.45334 120.366 9.05255C120.178 8.65176 119.91 8.3483 119.559 8.14218C119.208 7.93606 118.773 7.833 118.255 7.833C117.627 7.833 117.084 7.99331 116.624 8.31585C116.165 8.63839 115.882 9.10789 115.772 9.72816H114.43C114.502 9.07163 114.73 8.52197 115.11 8.0792C115.491 7.63642 115.958 7.30243 116.514 7.07722C117.071 6.85202 117.65 6.73941 118.255 6.73941C119.088 6.73941 119.774 6.89782 120.313 7.21273C120.85 7.52954 121.252 7.96278 121.518 8.51625C121.784 9.06972 121.917 9.70907 121.917 10.4381V15.9957H120.757L120.63 14.2456H120.575C120.453 14.5014 120.303 14.7495 120.121 14.9938C119.939 15.2381 119.732 15.4461 119.496 15.6217C119.261 15.7973 118.986 15.9404 118.673 16.0492C118.358 16.158 118.003 16.2133 117.604 16.2133H117.598ZM117.725 15.0835C118.16 15.0835 118.557 14.9995 118.912 14.8277C119.269 14.6579 119.576 14.4212 119.836 14.1178C120.096 13.8143 120.296 13.4517 120.434 13.0337C120.573 12.6138 120.643 12.1615 120.643 11.6768V11.6042H118.268C117.615 11.6042 117.093 11.6844 116.7 11.8409C116.307 11.9993 116.023 12.2092 115.848 12.4688C115.673 12.7303 115.586 13.0318 115.586 13.3715C115.586 13.7112 115.668 14.009 115.831 14.2647C115.994 14.5205 116.235 14.7209 116.556 14.8659C116.877 15.011 117.266 15.0854 117.725 15.0854V15.0835Z" fill="white"/>
<path d="M128.019 16.2133C127.452 16.2133 126.941 16.1217 126.488 15.9404C126.034 15.7572 125.649 15.5148 125.328 15.2114C125.007 14.9079 124.756 14.5682 124.576 14.1903H124.521L124.377 15.9939H123.217V3.14758H124.485V8.54107C124.8 8.00668 125.242 7.57154 125.817 7.23755C126.391 6.90356 127.078 6.7356 127.875 6.7356C128.769 6.7356 129.555 6.93982 130.231 7.34633C130.907 7.75285 131.427 8.31205 131.789 9.02202C132.152 9.73199 132.332 10.5431 132.332 11.4554C132.332 12.3677 132.157 13.1616 131.806 13.8792C131.455 14.5968 130.954 15.1636 130.303 15.5835C129.652 16.0034 128.889 16.2114 128.019 16.2114V16.2133ZM127.856 15.1007C128.509 15.1007 129.071 14.9499 129.542 14.6445C130.012 14.3411 130.381 13.9155 130.646 13.3696C130.912 12.8238 131.045 12.1844 131.045 11.4554C131.045 10.7263 130.907 10.0698 130.628 9.52396C130.35 8.97812 129.969 8.56206 129.485 8.27578C129.001 7.98951 128.439 7.84828 127.799 7.84828C127.159 7.84828 126.613 7.99141 126.123 8.27578C125.633 8.56206 125.25 8.97812 124.973 9.52396C124.696 10.0698 124.555 10.7149 124.555 11.4554C124.555 12.1959 124.698 12.8219 124.98 13.3696C125.265 13.9155 125.656 14.3411 126.159 14.6445C126.66 14.948 127.226 15.1007 127.854 15.1007H127.856Z" fill="white"/>
<path d="M137.444 16.2133C136.597 16.2133 135.85 16.0148 135.197 15.6217C134.544 15.2266 134.031 14.675 133.655 13.9632C133.281 13.2532 133.093 12.4173 133.093 11.4573C133.093 10.4973 133.277 9.66518 133.646 8.96093C134.014 8.25669 134.53 7.71085 135.195 7.32151C135.859 6.93217 136.62 6.7375 137.478 6.7375C138.336 6.7375 139.092 6.93599 139.707 7.32915C140.324 7.72421 140.794 8.2376 141.121 8.86932C141.447 9.50104 141.611 10.1824 141.611 10.9095V11.2912C141.611 11.4248 141.605 11.5775 141.592 11.7474H134.071V10.6538H140.379C140.343 9.76633 140.046 9.07544 139.49 8.57732C138.934 8.07919 138.245 7.82918 137.425 7.82918C136.882 7.82918 136.373 7.95132 135.903 8.19371C135.432 8.43609 135.05 8.79298 134.762 9.25866C134.471 9.72625 134.327 10.3064 134.327 10.9992V11.4916C134.327 12.3066 134.479 12.9822 134.781 13.5242C135.083 14.0643 135.472 14.4651 135.95 14.7266C136.427 14.988 136.926 15.1178 137.446 15.1178C138.122 15.1178 138.691 14.9594 139.15 14.6445C139.61 14.3296 139.936 13.8906 140.13 13.3314H141.362C141.218 13.8792 140.969 14.3697 140.618 14.8067C140.267 15.2438 139.826 15.5873 139.295 15.8354C138.763 16.0835 138.146 16.2095 137.446 16.2095L137.444 16.2133Z" fill="white"/>
<path d="M142.573 15.9938V6.95507H143.733L143.824 8.72237H143.879C144.059 8.29677 144.308 7.93796 144.621 7.64787C144.934 7.35586 145.31 7.13066 145.745 6.97416C146.18 6.81575 146.675 6.7375 147.231 6.7375V8.06774H146.888C146.476 8.06774 146.087 8.11927 145.718 8.22233C145.35 8.32539 145.027 8.50288 144.748 8.75099C144.469 9.00101 144.249 9.335 144.086 9.75297C143.923 10.1728 143.841 10.692 143.841 11.3103V15.9938H142.573Z" fill="white"/>
<path d="M12.0921 22.2805C11.8985 22.2805 11.703 22.2309 11.5303 22.1316L5.91158 18.8929L2.12277 21.2881C1.77539 21.5076 1.33501 21.5209 0.974351 21.3205C0.613692 21.1201 0.391602 20.7403 0.391602 20.3262V4.46063C0.391602 4.06748 0.589015 3.70867 0.919303 3.49874L5.30985 0.721831C5.66482 0.498534 6.1109 0.488996 6.47345 0.697025L12.0883 3.93197C12.0883 3.93197 12.0959 3.93197 12.0978 3.93197L17.7127 0.718016C18.0753 0.509987 18.5195 0.519531 18.8744 0.742828L23.265 3.51973C23.5953 3.72966 23.7927 4.08847 23.7927 4.48162V20.3491C23.7927 20.7632 23.5687 21.143 23.2099 21.3434C22.8493 21.5438 22.4108 21.5305 22.0615 21.311L18.2727 18.9139L12.654 22.1297C12.4813 22.229 12.2877 22.2786 12.094 22.2786L12.0921 22.2805ZM5.88501 17.5798L12.0883 21.1545C12.0883 21.1545 12.0959 21.1545 12.0978 21.1545L18.2993 17.6046L22.6576 20.3605C22.6576 20.3605 22.6708 20.3605 22.6727 20.3567V4.48544C22.6727 4.48544 22.6727 4.47972 22.6689 4.47781L18.2784 1.7009C18.2784 1.7009 18.2708 1.699 18.2689 1.7009L12.654 4.91486C12.3085 5.11334 11.8776 5.11143 11.5322 4.91486L5.91728 1.67991C5.91728 1.67991 5.90969 1.67991 5.90779 1.67991L1.51724 4.45681C1.51724 4.45681 1.51344 4.46254 1.51344 4.46445V20.33C1.51344 20.33 1.52103 20.3415 1.52483 20.3415L5.88691 17.5836L5.88501 17.5798Z" fill="white"/>
<path d="M18.2955 8.83115L11.4752 14.6006C11.3689 14.6903 11.2152 14.6999 11.0994 14.6254L6.88348 11.8943C6.74681 11.8065 6.70885 11.6233 6.79616 11.4878L8.27297 9.18232C8.36029 9.0449 8.54251 9.00673 8.67729 9.09453L12.7964 11.7645L17.5552 7.93414C17.6463 7.86162 17.7792 7.87498 17.8532 7.96659L18.3164 8.54869C18.3847 8.63457 18.3733 8.75672 18.2974 8.83115H18.2955Z" fill="#C8F31D"/>
</svg>
